<svg width="40" height="40" viewBox="0 0 40 40" fill="none" xmlns="http://www.w3.org/2000/svg">
<g clip-path="url(#clip0_376_1378)">
<path d="M25.8333 23.3333H24.5167L24.05 22.8833C26.05 20.5499 27.0833 17.3666 26.5167 13.9833C25.7333 9.34994 21.8667 5.64994 17.2 5.08328C10.15 4.21661 4.21667 10.1499 5.08334 17.1999C5.65001 21.8666 9.35001 25.7333 13.9833 26.5166C17.3667 27.0833 20.55 26.0499 22.8833 24.0499L23.3333 24.5166V25.8333L30.4167 32.9166C31.1 33.5999 32.2167 33.5999 32.9 32.9166C33.5833 32.2333 33.5833 31.1166 32.9 30.4333L25.8333 23.3333ZM15.8333 23.3333C11.6833 23.3333 8.33334 19.9833 8.33334 15.8333C8.33334 11.6833 11.6833 8.33328 15.8333 8.33328C19.9833 8.33328 23.3333 11.6833 23.3333 15.8333C23.3333 19.9833 19.9833 23.3333 15.8333 23.3333Z" fill="#969696"/>
</g>
<defs>
<clipPath id="clip0_376_1378">
<rect width="40" height="40" fill="white"/>
</clipPath>
</defs>
</svg>
