<svg width="12" height="23" viewBox="0 0 12 23" fill="none" xmlns="http://www.w3.org/2000/svg">
<path d="M0.596691 11.6853C0.61755 11.4595 0.714076 11.2458 0.872367 11.0748L9.97812 1.17284C10.0744 1.06135 10.1936 0.969218 10.3286 0.901954C10.4635 0.834691 10.6115 0.793664 10.7637 0.781309C10.9159 0.768953 11.0691 0.785536 11.2143 0.83005C11.3596 0.874565 11.4938 0.946122 11.609 1.04044C11.7242 1.13475 11.818 1.24991 11.8849 1.37905C11.9518 1.50819 11.9904 1.64865 11.9984 1.79211C12.0064 1.93556 11.9835 2.07907 11.9313 2.21406C11.8791 2.34905 11.7985 2.47277 11.6944 2.57786L3.23773 11.7774L11.6944 20.9768C11.7985 21.0819 11.8791 21.2057 11.9313 21.3406C11.9835 21.4756 12.0064 21.6191 11.9984 21.7626C11.9904 21.906 11.9518 22.0465 11.8849 22.1757C11.818 22.3048 11.7242 22.4199 11.609 22.5143C11.4938 22.6086 11.3596 22.6801 11.2144 22.7246C11.0691 22.7692 10.9159 22.7857 10.7637 22.7734C10.6115 22.761 10.4635 22.72 10.3286 22.6527C10.1936 22.5855 10.0744 22.4933 9.97812 22.3819L0.872367 12.4799C0.772117 12.3716 0.69605 12.2454 0.648691 12.1089C0.601331 11.9724 0.583647 11.8284 0.596691 11.6853V11.6853Z" fill="#B7131B"/>
</svg>
