<svg width="12" height="23" viewBox="0 0 12 23" fill="none" xmlns="http://www.w3.org/2000/svg">
<path d="M11.9958 11.6853C11.975 11.4595 11.8785 11.2458 11.7202 11.0748L2.61441 1.17284C2.51809 1.06135 2.3989 0.969218 2.26394 0.901954C2.12898 0.834691 1.98101 0.793664 1.82884 0.781309C1.67666 0.768953 1.5234 0.785536 1.37818 0.83005C1.23296 0.874565 1.09875 0.946122 0.983542 1.04044C0.868334 1.13475 0.774486 1.24991 0.707588 1.37905C0.64069 1.50819 0.60211 1.64865 0.594144 1.79211C0.586179 1.93556 0.608993 2.07907 0.661225 2.21406C0.713457 2.34905 0.794039 2.47277 0.898174 2.57786L9.3548 11.7774L0.898172 20.9768C0.794037 21.0819 0.713454 21.2057 0.661222 21.3406C0.60899 21.4756 0.586176 21.6191 0.594142 21.7626C0.602107 21.906 0.640687 22.0465 0.707585 22.1757C0.774484 22.3048 0.868332 22.4199 0.983539 22.5143C1.09875 22.6086 1.23296 22.6801 1.37818 22.7246C1.5234 22.7692 1.67666 22.7857 1.82883 22.7734C1.98101 22.761 2.12898 22.72 2.26394 22.6527C2.3989 22.5855 2.51809 22.4933 2.61441 22.3819L11.7202 12.4799C11.8204 12.3716 11.8965 12.2454 11.9438 12.1089C11.9912 11.9724 12.0089 11.8284 11.9958 11.6853V11.6853Z" fill="#B7131B"/>
</svg>
